<svg width="200" height="209" viewBox="0 0 200 209" fill="none" xmlns="http://www.w3.org/2000/svg">
<mask id="mask0_11_304" style="mask-type:alpha" maskUnits="userSpaceOnUse" x="0" y="0" width="200" height="209">
<rect width="200" height="209" fill="#D9D9D9"/>
</mask>
<g mask="url(#mask0_11_304)">
<path d="M99.9999 181C139.212 181 171 149.212 171 110C171 70.7878 139.212 39 99.9999 39C60.7877 39 28.9999 70.7878 28.9999 110C28.9999 149.212 60.7877 181 99.9999 181Z" fill="#5F29FF"/>
<path fill-rule="evenodd" clip-rule="evenodd" d="M1337.02 108.04H1199.83V109.513C1199.83 154.906 1164.43 192.149 1119.82 195.188C1119.03 192.471 1116.55 190.538 1113.6 190.538C1110.66 190.538 1108.22 192.471 1107.43 195.142C1063.15 191.781 1028.11 154.675 1028.11 109.513V108.04H864.911C864.175 61.9114 828.082 24.2073 782.598 20.9387C782.321 17.6241 779.559 15 776.153 15C772.746 15 769.984 17.6241 769.707 20.9387C724.177 24.2073 688.038 61.9114 687.302 108.04H524.056V109.513C524.056 154.813 488.792 192.057 444.228 195.188C443.445 192.517 440.959 190.538 438.013 190.538C435.067 190.538 432.627 192.517 431.798 195.188C387.419 191.919 352.247 154.767 352.247 109.559V108.086H189.093C188.356 62.0035 152.309 24.3454 106.917 20.9848C106.411 17.9463 103.741 15.6445 100.564 15.6445C97.3876 15.6445 94.7635 17.9463 94.2111 20.9848C48.5427 24.1153 12.2658 61.8653 11.5292 108.132H-379V111.079H14.4295V109.513C14.4295 64.1672 49.7856 26.9235 94.3492 23.839C95.1318 26.5092 97.6178 28.4887 100.564 28.4887C103.51 28.4887 105.95 26.5552 106.733 23.839C151.066 27.1537 186.146 64.3053 186.146 109.467V110.94H349.392C350.129 157.069 386.222 194.727 431.706 198.042C432.212 201.08 434.883 203.382 438.059 203.382C441.236 203.382 443.86 201.08 444.412 198.042C490.035 194.865 526.265 157.115 527.002 110.94H690.248V109.513C690.248 64.1672 725.604 26.9235 770.168 23.839C771.135 26.2329 773.436 27.9363 776.153 27.9363C778.869 27.9363 781.217 26.2329 782.137 23.8851C826.701 27.0156 861.965 64.2132 861.965 109.559V111.033H1025.21C1025.95 157.069 1061.95 194.727 1107.29 198.134C1107.8 201.172 1110.47 203.474 1113.65 203.474C1116.82 203.474 1119.45 201.172 1120 198.18C1165.72 195.096 1202.04 157.345 1202.82 111.033H1337.02V108.04Z" fill="#333333"/>
<path d="M81.2627 115.83H89.1036L93.0454 120.901L96.9232 125.418L104.231 134.58H95.6235L90.5951 128.401L88.017 124.736L81.2627 115.83ZM104.892 109.182C104.892 113.94 103.99 117.989 102.186 121.327C100.396 124.665 97.9531 127.214 94.8565 128.976C91.7741 130.723 88.3082 131.597 84.4587 131.597C80.5809 131.597 77.1008 130.716 74.0184 128.955C70.936 127.193 68.4999 124.643 66.7102 121.305C64.9204 117.967 64.0255 113.926 64.0255 109.182C64.0255 104.423 64.9204 100.375 66.7102 97.0369C68.4999 93.6989 70.936 91.1562 74.0184 89.4091C77.1008 87.6477 80.5809 86.767 84.4587 86.767C88.3082 86.767 91.7741 87.6477 94.8565 89.4091C97.9531 91.1562 100.396 93.6989 102.186 97.0369C103.99 100.375 104.892 104.423 104.892 109.182ZM95.5383 109.182C95.5383 106.099 95.0766 103.5 94.1533 101.384C93.2443 99.267 91.9587 97.6619 90.2968 96.5682C88.6349 95.4744 86.6889 94.9276 84.4587 94.9276C82.2286 94.9276 80.2826 95.4744 78.6207 96.5682C76.9587 97.6619 75.6661 99.267 74.7428 101.384C73.8337 103.5 73.3792 106.099 73.3792 109.182C73.3792 112.264 73.8337 114.864 74.7428 116.98C75.6661 119.097 76.9587 120.702 78.6207 121.795C80.2826 122.889 82.2286 123.436 84.4587 123.436C86.6889 123.436 88.6349 122.889 90.2968 121.795C91.9587 120.702 93.2443 119.097 94.1533 116.98C95.0766 114.864 95.5383 112.264 95.5383 109.182ZM130.455 87.3636V131H121.229V96.1207H120.973L110.98 102.385V94.2031L121.783 87.3636H130.455Z" fill="white"/>
</g>
</svg>
