<svg width="200" height="209" viewBox="0 0 200 209" fill="none" xmlns="http://www.w3.org/2000/svg">
<mask id="mask0_11_305" style="mask-type:alpha" maskUnits="userSpaceOnUse" x="0" y="0" width="200" height="209">
<rect width="200" height="209" fill="#D9D9D9"/>
</mask>
<g mask="url(#mask0_11_305)">
<path d="M99.9999 181C139.212 181 171 149.212 171 110C171 70.7878 139.212 39 99.9999 39C60.7877 39 28.9999 70.7878 28.9999 110C28.9999 149.212 60.7877 181 99.9999 181Z" fill="#FFCE25"/>
<path fill-rule="evenodd" clip-rule="evenodd" d="M999.015 108.04H861.828V109.513C861.828 154.906 826.426 192.149 781.816 195.188C781.034 192.471 778.548 190.538 775.602 190.538C772.655 190.538 770.215 192.471 769.433 195.142C725.145 191.781 690.111 154.675 690.111 109.513V108.04H526.911C526.175 61.9114 490.082 24.2073 444.598 20.9387C444.321 17.6241 441.559 15 438.153 15C434.746 15 431.984 17.6241 431.707 20.9387C386.177 24.2073 350.038 61.9114 349.302 108.04H186.056V109.513C186.056 154.813 150.792 192.057 106.228 195.188C105.445 192.517 102.959 190.538 100.013 190.538C97.0667 190.538 94.6268 192.517 93.7981 195.188C49.4188 191.919 14.2468 154.767 14.2468 109.559V108.086H-148.907C-149.644 62.0035 -185.691 24.3454 -231.083 20.9848C-231.589 17.9463 -234.259 15.6445 -237.436 15.6445C-240.612 15.6445 -243.236 17.9463 -243.789 20.9848C-289.457 24.1153 -325.734 61.8653 -326.471 108.132H-717V111.079H-323.571V109.513C-323.571 64.1672 -288.214 26.9235 -243.651 23.839C-242.868 26.5092 -240.382 28.4887 -237.436 28.4887C-234.49 28.4887 -232.05 26.5552 -231.267 23.839C-186.934 27.1537 -151.854 64.3053 -151.854 109.467V110.94H11.3925C12.129 157.069 48.2218 194.727 93.7061 198.042C94.2125 201.08 96.8826 203.382 100.059 203.382C103.236 203.382 105.86 201.08 106.412 198.042C152.035 194.865 188.265 157.115 189.002 110.94H352.248V109.513C352.248 64.1672 387.604 26.9235 432.168 23.839C433.135 26.2329 435.436 27.9363 438.153 27.9363C440.869 27.9363 443.217 26.2329 444.137 23.8851C488.701 27.0156 523.965 64.2132 523.965 109.559V111.033H687.211C687.948 157.069 723.948 194.727 769.294 198.134C769.801 201.172 772.471 203.474 775.648 203.474C778.824 203.474 781.448 201.172 782.001 198.18C827.715 195.096 864.038 157.345 864.821 111.033H999.015V108.04Z" fill="#333333"/>
<path d="M81.2627 115.83H89.1036L93.0454 120.901L96.9232 125.418L104.231 134.58H95.6235L90.5951 128.401L88.017 124.736L81.2627 115.83ZM104.892 109.182C104.892 113.94 103.99 117.989 102.186 121.327C100.396 124.665 97.9531 127.214 94.8565 128.976C91.7741 130.723 88.3082 131.597 84.4587 131.597C80.5809 131.597 77.1008 130.716 74.0184 128.955C70.936 127.193 68.4999 124.643 66.7102 121.305C64.9204 117.967 64.0255 113.926 64.0255 109.182C64.0255 104.423 64.9204 100.375 66.7102 97.0369C68.4999 93.6989 70.936 91.1562 74.0184 89.4091C77.1008 87.6477 80.5809 86.767 84.4587 86.767C88.3082 86.767 91.7741 87.6477 94.8565 89.4091C97.9531 91.1562 100.396 93.6989 102.186 97.0369C103.99 100.375 104.892 104.423 104.892 109.182ZM95.5383 109.182C95.5383 106.099 95.0766 103.5 94.1533 101.384C93.2443 99.267 91.9587 97.6619 90.2968 96.5682C88.6349 95.4744 86.6889 94.9276 84.4587 94.9276C82.2286 94.9276 80.2826 95.4744 78.6207 96.5682C76.9587 97.6619 75.6661 99.267 74.7428 101.384C73.8337 103.5 73.3792 106.099 73.3792 109.182C73.3792 112.264 73.8337 114.864 74.7428 116.98C75.6661 119.097 76.9587 120.702 78.6207 121.795C80.2826 122.889 82.2286 123.436 84.4587 123.436C86.6889 123.436 88.6349 122.889 90.2968 121.795C91.9587 120.702 93.2443 119.097 94.1533 116.98C95.0766 114.864 95.5383 112.264 95.5383 109.182ZM111.47 131V124.352L127.003 109.97C128.324 108.692 129.432 107.541 130.327 106.518C131.236 105.496 131.925 104.494 132.394 103.514C132.863 102.52 133.097 101.447 133.097 100.297C133.097 99.0185 132.806 97.9176 132.223 96.9943C131.641 96.0568 130.845 95.3395 129.837 94.8423C128.828 94.331 127.685 94.0753 126.407 94.0753C125.071 94.0753 123.907 94.3452 122.912 94.8849C121.918 95.4247 121.151 96.1989 120.611 97.2074C120.071 98.2159 119.801 99.4162 119.801 100.808H111.044C111.044 97.9531 111.691 95.4744 112.983 93.3722C114.276 91.2699 116.087 89.6435 118.416 88.4929C120.746 87.3423 123.431 86.767 126.47 86.767C129.595 86.767 132.316 87.321 134.631 88.429C136.961 89.5227 138.772 91.0426 140.064 92.9886C141.357 94.9347 142.003 97.1648 142.003 99.679C142.003 101.327 141.676 102.953 141.023 104.558C140.384 106.163 139.24 107.946 137.593 109.906C135.945 111.852 133.622 114.189 130.625 116.916L124.255 123.159V123.457H142.578V131H111.47Z" fill="white"/>
</g>
</svg>
