<svg width="200" height="209" viewBox="0 0 200 209" fill="none" xmlns="http://www.w3.org/2000/svg">
<mask id="mask0_11_306" style="mask-type:alpha" maskUnits="userSpaceOnUse" x="0" y="0" width="200" height="209">
<rect x="-6.10352e-05" width="200" height="209" fill="#D9D9D9"/>
</mask>
<g mask="url(#mask0_11_306)">
<path d="M101 181C140.212 181 172 149.212 172 110C172 70.7878 140.212 39 101 39C61.7877 39 29.9999 70.7878 29.9999 110C29.9999 149.212 61.7877 181 101 181Z" fill="#2083F8"/>
<path fill-rule="evenodd" clip-rule="evenodd" d="M662.015 108.04H524.828V109.513C524.828 154.906 489.426 192.149 444.816 195.188C444.034 192.471 441.548 190.538 438.602 190.538C435.655 190.538 433.215 192.471 432.433 195.142C388.145 191.781 353.111 154.675 353.111 109.513V108.04H189.911C189.175 61.9114 153.082 24.2073 107.598 20.9387C107.321 17.6241 104.559 15 101.153 15C97.7458 15 94.9836 17.6241 94.7075 20.9387C49.1772 24.2073 13.0383 61.9114 12.3017 108.04H-150.944V109.513C-150.944 154.813 -186.208 192.057 -230.772 195.188C-231.555 192.517 -234.041 190.538 -236.987 190.538C-239.933 190.538 -242.373 192.517 -243.202 195.188C-287.581 191.919 -322.753 154.767 -322.753 109.559V108.086H-485.907C-486.644 62.0035 -522.691 24.3454 -568.083 20.9848C-568.589 17.9463 -571.259 15.6445 -574.436 15.6445C-577.612 15.6445 -580.236 17.9463 -580.789 20.9848C-626.457 24.1153 -662.734 61.8653 -663.471 108.132H-1054V111.079H-660.571V109.513C-660.571 64.1672 -625.214 26.9235 -580.651 23.839C-579.868 26.5092 -577.382 28.4887 -574.436 28.4887C-571.49 28.4887 -569.05 26.5552 -568.267 23.839C-523.934 27.1537 -488.854 64.3053 -488.854 109.467V110.94H-325.608C-324.871 157.069 -288.778 194.727 -243.294 198.042C-242.788 201.08 -240.117 203.382 -236.941 203.382C-233.764 203.382 -231.14 201.08 -230.588 198.042C-184.965 194.865 -148.735 157.115 -147.998 110.94H15.2481V109.513C15.2481 64.1672 50.6043 26.9235 95.1678 23.839C96.1346 26.2329 98.4363 27.9363 101.153 27.9363C103.869 27.9363 106.217 26.2329 107.137 23.8851C151.701 27.0156 186.965 64.2132 186.965 109.559V111.033H350.211C350.948 157.069 386.948 194.727 432.294 198.134C432.801 201.172 435.471 203.474 438.648 203.474C441.824 203.474 444.448 201.172 445.001 198.18C490.715 195.096 527.038 157.345 527.821 111.033H662.015V108.04Z" fill="#333333"/>
<path d="M79.2627 115.83H87.1036L91.0454 120.901L94.9232 125.418L102.231 134.58H93.6235L88.5951 128.401L86.017 124.736L79.2627 115.83ZM102.892 109.182C102.892 113.94 101.99 117.989 100.186 121.327C98.3962 124.665 95.9531 127.214 92.8565 128.976C89.7741 130.723 86.3082 131.597 82.4587 131.597C78.5809 131.597 75.1008 130.716 72.0184 128.955C68.936 127.193 66.4999 124.643 64.7102 121.305C62.9204 117.967 62.0255 113.926 62.0255 109.182C62.0255 104.423 62.9204 100.375 64.7102 97.0369C66.4999 93.6989 68.936 91.1562 72.0184 89.4091C75.1008 87.6477 78.5809 86.767 82.4587 86.767C86.3082 86.767 89.7741 87.6477 92.8565 89.4091C95.9531 91.1562 98.3962 93.6989 100.186 97.0369C101.99 100.375 102.892 104.423 102.892 109.182ZM93.5383 109.182C93.5383 106.099 93.0766 103.5 92.1533 101.384C91.2443 99.267 89.9587 97.6619 88.2968 96.5682C86.6349 95.4744 84.6889 94.9276 82.4587 94.9276C80.2286 94.9276 78.2826 95.4744 76.6207 96.5682C74.9587 97.6619 73.6661 99.267 72.7428 101.384C71.8337 103.5 71.3792 106.099 71.3792 109.182C71.3792 112.264 71.8337 114.864 72.7428 116.98C73.6661 119.097 74.9587 120.702 76.6207 121.795C78.2826 122.889 80.2286 123.436 82.4587 123.436C84.6889 123.436 86.6349 122.889 88.2968 121.795C89.9587 120.702 91.2443 119.097 92.1533 116.98C93.0766 114.864 93.5383 112.264 93.5383 109.182ZM125.6 131.597C122.418 131.597 119.584 131.05 117.098 129.956C114.627 128.848 112.674 127.328 111.239 125.396C109.818 123.45 109.087 121.206 109.044 118.663H118.334C118.391 119.729 118.739 120.666 119.378 121.476C120.032 122.271 120.898 122.889 121.978 123.33C123.057 123.77 124.272 123.99 125.621 123.99C127.027 123.99 128.27 123.741 129.35 123.244C130.429 122.747 131.274 122.058 131.885 121.178C132.496 120.297 132.801 119.281 132.801 118.131C132.801 116.966 132.475 115.936 131.821 115.041C131.182 114.132 130.259 113.422 129.051 112.911C127.858 112.399 126.438 112.143 124.79 112.143H120.72V105.368H124.79C126.182 105.368 127.411 105.126 128.476 104.643C129.556 104.161 130.394 103.493 130.99 102.641C131.587 101.774 131.885 100.766 131.885 99.6151C131.885 98.5213 131.622 97.5625 131.097 96.7386C130.586 95.9006 129.861 95.2472 128.924 94.7784C128 94.3097 126.921 94.0753 125.685 94.0753C124.435 94.0753 123.291 94.3026 122.255 94.7571C121.218 95.1974 120.387 95.8295 119.762 96.6534C119.137 97.4773 118.803 98.4432 118.76 99.5511H109.918C109.961 97.0369 110.678 94.821 112.07 92.9034C113.462 90.9858 115.337 89.4872 117.695 88.4077C120.067 87.3139 122.745 86.767 125.728 86.767C128.739 86.767 131.374 87.3139 133.632 88.4077C135.891 89.5014 137.645 90.9787 138.895 92.8395C140.159 94.6861 140.784 96.7599 140.77 99.0611C140.784 101.504 140.024 103.543 138.49 105.176C136.97 106.81 134.989 107.847 132.546 108.287V108.628C135.756 109.04 138.199 110.155 139.875 111.973C141.566 113.777 142.404 116.036 142.389 118.749C142.404 121.234 141.686 123.443 140.238 125.375C138.803 127.307 136.821 128.827 134.293 129.935C131.764 131.043 128.867 131.597 125.6 131.597Z" fill="white"/>
</g>
</svg>
