<svg width="200" height="209" viewBox="0 0 200 209" fill="none" xmlns="http://www.w3.org/2000/svg">
<mask id="mask0_11_307" style="mask-type:alpha" maskUnits="userSpaceOnUse" x="0" y="0" width="200" height="209">
<rect x="-6.10352e-05" width="200" height="209" fill="#D9D9D9"/>
</mask>
<g mask="url(#mask0_11_307)">
<path d="M99.9999 181C139.212 181 171 149.212 171 110C171 70.7878 139.212 39 99.9999 39C60.7877 39 28.9999 70.7878 28.9999 110C28.9999 149.212 60.7877 181 99.9999 181Z" fill="#C63EA8"/>
<path fill-rule="evenodd" clip-rule="evenodd" d="M323.015 108.04H185.828V109.513C185.828 154.906 150.426 192.149 105.816 195.188C105.034 192.471 102.548 190.538 99.6015 190.538C96.6551 190.538 94.2153 192.471 93.4327 195.142C49.1453 191.781 14.1114 154.675 14.1114 109.513V108.04H-149.089C-149.825 61.9114 -185.918 24.2073 -231.402 20.9387C-231.679 17.6241 -234.441 15 -237.847 15C-241.254 15 -244.016 17.6241 -244.293 20.9387C-289.823 24.2073 -325.962 61.9114 -326.698 108.04H-489.944V109.513C-489.944 154.813 -525.208 192.057 -569.772 195.188C-570.555 192.517 -573.041 190.538 -575.987 190.538C-578.933 190.538 -581.373 192.517 -582.202 195.188C-626.581 191.919 -661.753 154.767 -661.753 109.559V108.086H-824.907C-825.644 62.0035 -861.691 24.3454 -907.083 20.9848C-907.589 17.9463 -910.259 15.6445 -913.436 15.6445C-916.612 15.6445 -919.236 17.9463 -919.789 20.9848C-965.457 24.1153 -1001.73 61.8653 -1002.47 108.132H-1393V111.079H-999.571V109.513C-999.571 64.1672 -964.214 26.9235 -919.651 23.839C-918.868 26.5092 -916.382 28.4887 -913.436 28.4887C-910.49 28.4887 -908.05 26.5552 -907.267 23.839C-862.934 27.1537 -827.854 64.3053 -827.854 109.467V110.94H-664.608C-663.871 157.069 -627.778 194.727 -582.294 198.042C-581.788 201.08 -579.117 203.382 -575.941 203.382C-572.764 203.382 -570.14 201.08 -569.588 198.042C-523.965 194.865 -487.735 157.115 -486.998 110.94H-323.752V109.513C-323.752 64.1672 -288.396 26.9235 -243.832 23.839C-242.865 26.2329 -240.564 27.9363 -237.847 27.9363C-235.131 27.9363 -232.783 26.2329 -231.863 23.8851C-187.299 27.0156 -152.035 64.2132 -152.035 109.559V111.033H11.211C11.9477 157.069 47.9483 194.727 93.2945 198.134C93.8008 201.172 96.471 203.474 99.6475 203.474C102.824 203.474 105.448 201.172 106.001 198.18C151.715 195.096 188.038 157.345 188.821 111.033H323.015V108.04Z" fill="#333333"/>
<path d="M75.2627 115.83H83.1036L87.0454 120.901L90.9232 125.418L98.2315 134.58H89.6235L84.5951 128.401L82.017 124.736L75.2627 115.83ZM98.892 109.182C98.892 113.94 97.99 117.989 96.186 121.327C94.3962 124.665 91.9531 127.214 88.8565 128.976C85.7741 130.723 82.3082 131.597 78.4587 131.597C74.5809 131.597 71.1008 130.716 68.0184 128.955C64.936 127.193 62.4999 124.643 60.7102 121.305C58.9204 117.967 58.0255 113.926 58.0255 109.182C58.0255 104.423 58.9204 100.375 60.7102 97.0369C62.4999 93.6989 64.936 91.1562 68.0184 89.4091C71.1008 87.6477 74.5809 86.767 78.4587 86.767C82.3082 86.767 85.7741 87.6477 88.8565 89.4091C91.9531 91.1562 94.3962 93.6989 96.186 97.0369C97.99 100.375 98.892 104.423 98.892 109.182ZM89.5383 109.182C89.5383 106.099 89.0766 103.5 88.1533 101.384C87.2443 99.267 85.9587 97.6619 84.2968 96.5682C82.6349 95.4744 80.6889 94.9276 78.4587 94.9276C76.2286 94.9276 74.2826 95.4744 72.6207 96.5682C70.9587 97.6619 69.6661 99.267 68.7428 101.384C67.8337 103.5 67.3792 106.099 67.3792 109.182C67.3792 112.264 67.8337 114.864 68.7428 116.98C69.6661 119.097 70.9587 120.702 72.6207 121.795C74.2826 122.889 76.2286 123.436 78.4587 123.436C80.6889 123.436 82.6349 122.889 84.2968 121.795C85.9587 120.702 87.2443 119.097 88.1533 116.98C89.0766 114.864 89.5383 112.264 89.5383 109.182ZM104.81 123.33V116.064L123.027 87.3636H129.291V97.4205H125.584L114.1 115.595V115.936H139.988V123.33H104.81ZM125.755 131V121.114L125.925 117.896V87.3636H134.576V131H125.755Z" fill="white"/>
</g>
</svg>
