<svg width="1920" height="960" viewBox="0 0 1920 960" fill="none" xmlns="http://www.w3.org/2000/svg">
<rect width="1920" height="960" fill="#5F29FF"/>
<path opacity="0.1" d="M1947.77 450.769C1874.53 380.542 1813.99 348.272 1762.79 352.05C1717.93 355.346 1688.25 386.653 1667.51 413.518C1653.9 431.121 1635.48 439.526 1618.31 435.986C1605.85 433.442 1596.42 424.675 1593.55 413.334C1589.39 396.953 1598.81 377.62 1619.46 360.245C1637.14 345.261 1644.28 324.178 1639.04 302.178C1632.34 274.203 1607.12 250.574 1576.23 243.395C1552.2 237.732 1504.25 237.337 1453.78 297.927C1388.82 375.891 1282.77 420.61 1195.85 406.793C1151.6 399.768 1092.13 374.63 1060.25 294.629C1024.23 204.314 979.122 152.383 926.326 140.258C879.59 129.531 827.556 149.964 771.498 201.139C719.657 248.387 666.501 263.399 625.553 242.203C585.917 221.707 566.063 169.859 573.821 106.917C582.445 36.7248 560.232 0.196698 540.104 -18.2342C518.102 -38.3563 494.399 -41.4445 493.41 -41.5902C491.827 -41.8235 490.336 -40.6279 490.202 -39.0304C489.969 -37.4475 491.08 -36.0708 492.762 -35.823C492.96 -35.7939 515.857 -32.7234 536.52 -13.8093C563.762 11.229 574.738 52.6717 568.182 106.087C560.158 171.516 581.092 225.645 622.985 247.283C643.276 257.753 667.421 259.895 692.707 253.614C720.102 246.734 747.963 230.522 775.524 205.371C830.063 155.589 880.412 135.615 925.085 145.937C976.031 157.588 1019.69 208.395 1054.97 296.883C1087.9 379.364 1149.27 405.287 1194.99 412.63C1239.14 419.64 1287.79 412.557 1335.88 392.149C1383.53 371.979 1425.86 340.613 1458.27 301.723C1506.77 243.571 1552.12 243.784 1574.88 249.159C1603.61 255.819 1627.16 277.787 1633.36 303.666C1638.19 323.684 1631.92 342.268 1615.65 355.943C1593.26 374.781 1583.21 396.346 1587.85 414.921C1591.32 428.471 1602.53 438.816 1617.14 441.878C1636.55 445.951 1657.11 436.75 1672.1 417.328C1692.2 391.38 1720.59 361.297 1763.21 358.076C1786 356.38 1811.57 362.574 1839.05 376.426C1870.57 392.291 1905.78 418.807 1943.78 455.235C1983.1 492.969 2031.94 525.739 2085.08 549.944C2131.59 571.149 2181.76 586.021 2231.32 593.324C2238.05 594.315 2244.89 595.222 2251.56 595.902C2347.91 606.055 2436.13 587.718 2506.69 543.735L2507.79 536.315C2339.38 644.725 2089.49 586.577 1947.77 450.769Z" fill="white"/>
<g clip-path="url(#clip0_16_6)">
<path d="M5.59983 485.1C26.3998 485.1 43.1998 502 43.1998 522.7C43.1998 543.5 26.2998 560.3 5.59983 560.3C-15.1002 560.3 -32.0002 543.4 -32.0002 522.7C-32.0002 502 -15.1002 485.1 5.59983 485.1ZM5.59983 554.6C23.1998 554.6 37.3998 540.3 37.3998 522.8C37.3998 505.3 23.0998 491 5.59983 491C-11.9002 490.9 -26.2002 505.2 -26.2002 522.8C-26.2002 540.4 -11.9002 554.6 5.59983 554.6Z" fill="#533E92"/>
<path d="M57.9998 462C66.1998 462 72.7998 468.6 72.7998 476.8C72.7998 485 66.1998 491.6 57.9998 491.6C49.8998 491.6 43.1998 485 43.1998 476.8C43.1998 468.6 49.8998 462 57.9998 462ZM57.9998 485.7C62.8998 485.7 66.9998 481.7 66.9998 476.7C66.9998 471.7 62.9998 467.7 57.9998 467.7C53.0998 467.7 48.9998 471.7 48.9998 476.7C48.9998 481.7 53.0998 485.7 57.9998 485.7Z" fill="#0D8650"/>
</g>
<defs>
<clipPath id="clip0_16_6">
<rect width="104.8" height="98.4" fill="white" transform="matrix(-1 0 0 1 72.7998 462)"/>
</clipPath>
</defs>
</svg>
